HIERARCHY
ROOT Hips
{
	OFFSET 0.000000 89.005402 0.000000
	CHANNELS 6 Xposition Yposition Zposition Xrotation Yrotation Zrotation
	JOINT Spine
	{
		OFFSET 0.116900 10.681000 0.373400
		CHANNELS 3 Xrotation Yrotation Zrotation
		JOINT Spine1
		{
			OFFSET 0.000000 13.840401 0.053500
			CHANNELS 3 Xrotation Yrotation Zrotation
			JOINT Spine2
			{
				OFFSET 0.000000 14.712700 -0.366200
				CHANNELS 3 Xrotation Yrotation Zrotation
				JOINT Neck
				{
					OFFSET 0.000000 35.415497 -3.314200
					CHANNELS 3 Xrotation Yrotation Zrotation
					JOINT Head
					{
						OFFSET 0.000000 16.899200 1.218300
						CHANNELS 3 Xrotation Yrotation Zrotation
						JOINT HeadTop_End
						{
							OFFSET 0.000000 22.206207 2.192500
							CHANNELS 3 Xrotation Yrotation Zrotation
							End Site
							{
								OFFSET 0.000000 22.314178 0.000000
							}
						}
					}
				}
				JOINT LeftShoulder
				{
					OFFSET 12.896400 26.716293 -4.548400
					CHANNELS 3 Xrotation Yrotation Zrotation
					JOINT LeftArm
					{
						OFFSET 19.027000 -4.857010 -1.718400
						CHANNELS 3 Xrotation Yrotation Zrotation
						JOINT LeftForeArm
						{
							OFFSET 24.179897 0.000000 0.000000
							CHANNELS 3 Xrotation Yrotation Zrotation
							JOINT LeftHand
							{
								OFFSET 27.156403 0.000000 0.000000
								CHANNELS 3 Xrotation Yrotation Zrotation
								JOINT LeftHandIndex1
								{
									OFFSET 16.441200 0.000000 0.000000
									CHANNELS 3 Xrotation Yrotation Zrotation
									JOINT LeftHandIndex2
									{
										OFFSET 4.821899 0.000000 0.000000
										CHANNELS 3 Xrotation Yrotation Zrotation
										JOINT LeftHandIndex3
										{
											OFFSET 6.386497 0.000000 0.000000
											CHANNELS 3 Xrotation Yrotation Zrotation
											JOINT LeftHandIndex4
											{
												OFFSET 5.188988 0.000000 0.000000
												CHANNELS 3 Xrotation Yrotation Zrotation
												End Site
												{
													OFFSET -0.178703 5.185913 0.000177
												}
											}
										}
									}
								}
								JOINT LeftHandThumb1
								{
									OFFSET 6.534897 -5.032593 5.900300
									CHANNELS 3 Xrotation Yrotation Zrotation
									JOINT LeftHandThumb2
									{
										OFFSET 3.818176 -2.204422 2.204423
										CHANNELS 3 Xrotation Yrotation Zrotation
										JOINT LeftHandThumb3
										{
											OFFSET 3.252098 -1.877594 1.877601
											CHANNELS 3 Xrotation Yrotation Zrotation
											JOINT LeftHandThumb4
											{
												OFFSET 5.251778 -3.032120 3.032117
												CHANNELS 3 Xrotation Yrotation Zrotation
												End Site
												{
													OFFSET 0.000023 6.780014 0.000000
												}
											}
										}
									}
								}
							}
						}
					}
				}
				JOINT RightShoulder
				{
					OFFSET -12.896300 26.716293 -4.548400
					CHANNELS 3 Xrotation Yrotation Zrotation
					JOINT RightArm
					{
						OFFSET -19.027000 -4.857010 -1.718400
						CHANNELS 3 Xrotation Yrotation Zrotation
						JOINT RightForeArm
						{
							OFFSET -24.179897 0.000000 0.000000
							CHANNELS 3 Xrotation Yrotation Zrotation
							JOINT RightHand
							{
								OFFSET -27.156403 0.000000 0.000000
								CHANNELS 3 Xrotation Yrotation Zrotation
								JOINT RightHandThumb1
								{
									OFFSET -6.591202 -4.852203 5.988100
									CHANNELS 3 Xrotation Yrotation Zrotation
									JOINT RightHandThumb2
									{
										OFFSET -3.818176 -2.204422 2.204423
										CHANNELS 3 Xrotation Yrotation Zrotation
										JOINT RightHandThumb3
										{
											OFFSET -3.252098 -1.877594 1.877601
											CHANNELS 3 Xrotation Yrotation Zrotation
											JOINT RightHandThumb4
											{
												OFFSET -5.251778 -3.032120 3.032117
												CHANNELS 3 Xrotation Yrotation Zrotation
												End Site
												{
													OFFSET -0.000023 6.780014 0.000000
												}
											}
										}
									}
								}
								JOINT RightHandIndex1
								{
									OFFSET -16.029404 0.000000 0.000000
									CHANNELS 3 Xrotation Yrotation Zrotation
									JOINT RightHandIndex2
									{
										OFFSET -5.213303 0.000000 0.000000
										CHANNELS 3 Xrotation Yrotation Zrotation
										JOINT RightHandIndex3
										{
											OFFSET -6.386528 0.000000 0.000000
											CHANNELS 3 Xrotation Yrotation Zrotation
											JOINT RightHandIndex4
											{
												OFFSET -5.189026 0.000000 0.000000
												CHANNELS 3 Xrotation Yrotation Zrotation
												End Site
												{
													OFFSET 0.236702 5.183624 0.001972
												}
											}
										}
									}
								}
							}
						}
					}
				}
			}
		}
	}
	JOINT LeftUpLeg
	{
		OFFSET 14.073000 -7.904099 -1.463000
		CHANNELS 3 Xrotation Yrotation Zrotation
		JOINT LeftLeg
		{
			OFFSET -0.109806 -34.073280 4.093200
			CHANNELS 3 Xrotation Yrotation Zrotation
			JOINT LeftFoot
			{
				OFFSET 0.109806 -29.899420 -6.319000
				CHANNELS 3 Xrotation Yrotation Zrotation
				JOINT LeftToeBase
				{
					OFFSET 1.551100 -14.988700 20.535801
					CHANNELS 3 Xrotation Yrotation Zrotation
					JOINT LeftToe_End
					{
						OFFSET 0.221200 0.570800 13.248301
						CHANNELS 3 Xrotation Yrotation Zrotation
						End Site
						{
							OFFSET 0.000000 13.262435 0.000000
						}
					}
				}
			}
		}
	}
	JOINT RightUpLeg
	{
		OFFSET -13.839300 -7.904099 -1.463000
		CHANNELS 3 Xrotation Yrotation Zrotation
		JOINT RightLeg
		{
			OFFSET 0.109694 -34.073219 4.093300
			CHANNELS 3 Xrotation Yrotation Zrotation
			JOINT RightFoot
			{
				OFFSET -0.109694 -29.899384 -6.319200
				CHANNELS 3 Xrotation Yrotation Zrotation
				JOINT RightToeBase
				{
					OFFSET -1.551100 -14.988700 20.535801
					CHANNELS 3 Xrotation Yrotation Zrotation
					JOINT RightToe_End
					{
						OFFSET -0.221200 0.570900 13.248299
						CHANNELS 3 Xrotation Yrotation Zrotation
						End Site
						{
							OFFSET 0.000000 13.262440 0.000000
						}
					}
				}
			}
		}
	}
}
MOTION
Frames: 9
Frame Time: 0.033333
0.690737 14.469452 9.426811 -95.022767 1.354714 -2.843590 2.959773 -0.812152 -0.138742 3.190002 -0.579905 0.392431 3.195706 -0.542837 0.376708 -1.216859 -1.725828 8.446271 -0.918613 5.098707 -6.895214 0.000000 -0.000000 -0.000000 1.085468 -13.360061 -4.458444 -18.925578 -21.978922 -12.821470 0.000052 -123.613447 0.000053 4.017561 -14.951648 1.373095 0.460227 4.491402 -23.662350 2.316213 4.665554 -52.785065 1.524982 3.943251 -42.272615 -0.000001 -0.000000 0.000000 0.699757 -6.020117 19.223941 19.074669 26.512421 -1.026353 3.271072 -0.981148 3.963645 -0.000001 0.000000 -0.000002 -0.402531 13.039000 21.882343 -29.287059 52.464001 15.599379 0.000004 113.260150 -0.000004 10.533702 8.192671 -2.668614 -13.495581 -11.552047 -5.371143 13.666564 -20.582679 -6.820330 3.162459 -4.141725 -22.215042 -0.000001 -0.000001 -0.000003 0.246036 -3.262797 18.902289 0.589444 -2.269657 29.112640 0.172168 -1.255799 15.610676 0.000000 -0.000002 -0.000000 -45.874037 4.726851 11.593009 86.033336 -9.099535 2.522001 48.821014 -2.969543 -1.990310 -1.217119 0.000000 0.000003 0.000000 -0.000000 -0.000000 -42.708459 -1.609588 -3.198816 87.208429 -0.161781 0.832361 47.752998 -0.278067 -0.269019 -1.699888 0.000001 0.000001 -0.000000 0.000001 -0.000000 
0.711495 14.478622 9.647392 -94.949991 1.513978 -2.816532 2.943996 -0.785030 -0.141674 3.132508 -0.552851 0.371034 3.138022 -0.515822 0.355705 -0.649587 -1.720402 8.392727 0.367627 4.906258 -6.574921 0.000000 0.000000 0.000000 1.039858 -14.373107 -4.926930 -18.127619 -21.685495 -13.277498 -0.000009 -123.249329 0.000015 5.650042 -16.426272 -0.193969 0.459649 4.489406 -23.599017 2.276064 4.634898 -52.289920 1.502064 3.917980 -41.938383 -0.000000 0.000001 0.000001 0.788322 -5.589503 18.638874 18.916561 26.433501 -0.239053 3.051822 -1.585942 4.859394 0.000002 0.000001 0.000001 -0.591442 14.050536 22.090797 -27.402335 51.141520 16.370278 0.000003 114.472994 -0.000003 11.601125 7.364947 -3.467716 -13.149289 -11.809722 -5.119166 13.611427 -20.522898 -7.447252 3.127820 -3.383393 -22.791141 -0.000002 0.000001 0.000001 0.244824 -3.262516 18.775053 0.579218 -2.251240 28.853731 0.170993 -1.251649 15.557609 0.000002 -0.000000 -0.000002 -45.954131 4.499481 11.599102 86.071011 -8.820927 2.497678 49.425588 -2.948545 -1.985637 -0.932853 0.000000 -0.000002 -0.000000 0.000000 0.000000 -42.853768 -1.610216 -3.462667 87.544392 -0.142569 0.865687 47.779639 -0.217792 -0.139795 -1.526497 0.000002 -0.000001 0.000000 0.000000 0.000000 
0.707379 14.442703 9.812996 -94.709438 1.532131 -2.783533 2.975061 -0.704101 -0.102065 3.163007 -0.466504 0.360910 3.167845 -0.429342 0.345692 1.002706 -1.524138 7.982862 2.315692 4.781041 -6.003290 -0.000000 0.000000 -0.000000 0.854162 -16.204726 -5.951020 -13.667200 -20.625604 -13.828220 0.000000 -121.263233 -0.000003 10.284692 -17.142060 3.436510 0.457910 4.483595 -23.420411 2.165059 4.547182 -50.903160 1.438639 3.846412 -41.001766 -0.000001 -0.000001 -0.000000 1.036511 -4.359877 17.019713 18.159675 26.234740 1.982206 2.444046 -3.321520 7.431179 0.000002 -0.000001 -0.000003 -0.986068 16.517358 22.025519 -22.211956 47.556831 17.350313 0.000084 113.263572 -0.000074 13.262727 7.438459 -6.201913 -12.187143 -12.523066 -4.408675 13.462783 -20.354485 -9.185004 2.896355 -1.207407 -24.394444 0.000003 0.000000 0.000001 0.241307 -3.261576 18.419871 0.551130 -2.199503 28.130120 0.167776 -1.240061 15.409965 0.000000 0.000001 -0.000000 -46.357600 4.374725 11.511391 86.340510 -8.735812 2.390005 49.465309 -2.789055 -1.793989 -0.611668 -0.000001 -0.000002 0.000000 -0.000000 0.000000 -43.717579 -1.527252 -3.602761 88.359138 -0.301911 0.864747 47.033659 -0.239461 -0.290330 -1.222281 0.000001 -0.000000 0.000000 0.000000 -0.000000 
0.684190 14.405716 9.973442 -94.353367 1.390270 -2.730315 3.071126 -0.622885 -0.021561 3.327059 -0.396940 0.392642 3.331303 -0.357441 0.377584 3.799334 -1.227259 7.378389 5.811177 4.664133 -5.113824 -0.000000 0.000000 0.000000 0.449984 -18.545832 -7.648318 -5.758446 -18.963096 -15.205234 0.000001 -116.853786 0.000017 12.621405 -15.488863 14.066082 0.455014 4.474250 -23.143567 1.998742 4.407275 -48.773042 1.343464 3.734319 -39.562003 0.000002 -0.000000 0.000000 1.423272 -2.396533 14.575962 16.981008 25.813052 5.356015 1.780901 -6.305479 11.369510 0.000006 0.000000 -0.000000 -1.689553 20.348928 22.586365 -15.162378 42.118594 19.454616 0.000144 108.120870 -0.000150 13.934630 9.160076 -8.412626 -10.722710 -13.600618 -3.298403 13.249607 -20.092140 -11.817620 2.815223 2.302407 -26.906110 0.000000 -0.000002 0.000002 0.235614 -3.259797 17.876569 0.509335 -2.119578 27.021553 0.162953 -1.222402 15.185124 0.000001 -0.000001 0.000001 -46.789866 4.468817 11.328882 86.637056 -8.933102 2.258912 49.349971 -2.612307 -1.618925 -0.359802 0.000000 -0.000001 0.000000 0.000000 0.000000 -44.851247 -1.448086 -3.656092 89.268284 -0.410285 0.845842 46.185463 -0.316382 -0.585375 -0.972499 -0.000000 0.000000 0.000000 0.000000 -0.000000 
0.669178 14.435730 10.171730 -93.669535 1.229516 -2.648578 3.292276 -0.615979 0.126721 3.637927 -0.460964 0.497194 3.642333 -0.419619 0.485011 6.968938 -0.831968 6.594185 11.051655 4.644872 -3.397487 -0.000002 0.000000 -0.000000 -0.214421 -21.555638 -9.966729 1.921498 -16.803128 -18.633675 0.000016 -108.216397 -0.000005 13.672791 -18.116870 20.893960 0.451005 4.461623 -22.785559 1.793760 4.219352 -46.047896 1.225730 3.587378 -37.718456 0.000003 -0.000001 0.000002 1.936125 0.243296 11.522342 15.591042 25.065631 9.583642 1.526821 -10.592889 16.416213 0.000002 0.000000 -0.000001 -2.915671 24.801650 24.562445 -8.957031 35.907449 22.999747 0.000118 98.205519 -0.000120 12.307217 11.609977 -10.141918 -8.867514 -14.948793 -1.842743 13.002722 -19.750672 -15.128645 3.255808 7.011158 -30.236185 -0.000000 0.000000 -0.000001 0.227760 -3.257020 17.185031 0.458325 -2.016485 25.607766 0.156936 -1.200020 14.900503 -0.000000 -0.000002 0.000003 -47.434936 4.471817 10.956654 86.861155 -9.069654 2.224596 49.357908 -2.617981 -1.810894 -0.213843 0.000001 0.000005 -0.000000 0.000000 -0.000000 -46.177061 -1.427277 -3.925971 90.011805 -0.296613 0.881138 45.710030 -0.346325 -0.756052 -0.818244 -0.000000 0.000001 -0.000000 0.000000 0.000000 
0.652859 14.555649 10.433144 -92.266751 0.971241 -2.490283 3.690847 -0.685594 0.366316 4.097325 -0.667140 0.665234 4.101830 -0.628719 0.661339 9.680336 -0.334453 5.517388 16.820031 4.922408 -1.816686 -0.000003 0.000000 -0.000000 -1.039465 -25.258919 -12.195007 6.704506 -13.825021 -23.643456 0.000870 -95.734056 0.000859 11.280735 -23.857106 18.874779 0.445811 4.446051 -22.363453 1.566724 3.988594 -42.876034 1.094602 3.411421 -35.570348 0.000000 -0.000002 0.000002 2.569960 3.480499 8.073413 14.185256 23.945294 14.354670 2.260756 -15.974031 22.407248 -0.000000 -0.000000 -0.000001 -4.446936 29.567421 26.456466 -6.188253 29.903781 27.570159 0.000139 83.564523 -0.000156 9.358004 15.677108 -12.075274 -6.732031 -16.472902 -0.101116 12.750878 -19.347341 -18.902540 4.626176 12.614869 -34.321168 0.000003 -0.000000 0.000001 0.217928 -3.253040 16.385040 0.402370 -1.895393 23.968507 0.150154 -1.174274 14.573469 -0.000002 0.000002 -0.000002 -48.859307 4.274525 10.525997 87.131002 -8.885826 2.249295 49.388299 -2.818995 -2.360115 -0.178760 0.000001 -0.000004 0.000000 0.000000 0.000000 -48.320132 -1.201852 -4.484549 90.879731 -0.200704 0.979989 45.605006 -0.344217 -0.811577 -0.754148 0.000002 -0.000002 -0.000000 -0.000001 0.000000 
0.605225 14.704514 10.845612 -90.063339 0.654398 -2.300936 4.250914 -0.687419 0.596429 4.719509 -0.786923 0.806637 4.722515 -0.753113 0.812738 11.877251 0.063034 4.406753 21.594753 5.254868 -1.756215 -0.000002 0.000000 0.000000 -1.702271 -29.565533 -12.904599 9.154094 -11.470947 -28.681621 0.000011 -80.070465 0.000014 8.072795 -27.950645 17.879272 0.439615 4.427708 -21.894294 1.333287 3.722010 -39.405581 0.958611 3.213089 -33.216911 0.000002 0.000002 0.000000 3.321355 7.193166 4.435482 12.954354 22.483472 19.357511 4.499980 -21.848617 29.240641 -0.000000 0.000002 0.000000 -5.719215 33.862381 26.542680 -6.713156 25.713598 31.884044 -0.000034 64.850973 0.000052 5.261201 19.891654 -11.664855 -4.427231 -18.078896 1.855011 12.518125 -18.902846 -22.925851 7.241601 18.590400 -39.086174 -0.000002 0.000003 -0.000003 0.206344 -3.247680 15.516434 0.345403 -1.761753 22.183452 0.143038 -1.146495 14.221412 0.000002 -0.000001 0.000001 -51.496990 3.834755 10.294411 87.827941 -8.456933 2.194977 49.378781 -3.062545 -2.954403 -0.264920 -0.000002 -0.000001 -0.000000 -0.000000 -0.000000 -51.657834 -0.496577 -4.960078 92.398738 -0.419174 1.091192 45.673707 -0.289545 -0.636763 -0.763857 0.000002 -0.000002 -0.000001 0.000000 -0.000000 
0.541789 14.815926 11.530128 -87.032559 0.547528 -2.286659 4.839995 -0.513386 0.539594 5.413112 -0.610269 0.798815 5.416323 -0.558086 0.802255 13.939690 0.107338 4.112058 24.561598 5.420703 -2.545463 0.000002 -0.000000 -0.000000 -1.583954 -33.479518 -10.332863 9.048978 -12.293410 -33.520311 -0.000003 -61.815022 0.000002 5.624999 -30.910206 18.575031 0.432398 4.406891 -21.395148 1.107377 3.429169 -35.784297 0.825285 2.999928 -30.757144 -0.000000 -0.000001 -0.000002 4.179264 11.206305 0.799836 12.039135 20.792259 24.301005 8.407182 -27.324959 36.745421 -0.000000 0.000002 0.000000 -6.291321 36.543988 24.983007 -7.963790 24.615542 34.223199 0.000000 44.483950 -0.000006 -1.034769 21.239503 -8.635040 -2.066849 -19.675782 3.936934 12.321502 -18.441328 -26.987799 11.151933 24.285106 -44.364893 -0.000002 0.000000 -0.000001 0.193445 -3.240721 14.619101 0.290755 -1.621337 20.332276 0.135919 -1.118103 13.861721 0.000000 0.000001 -0.000000 -55.725184 2.962920 10.326317 89.276173 -7.968378 1.975232 49.344032 -3.167855 -3.224066 -0.364381 0.000001 0.000001 0.000000 -0.000000 -0.000000 -56.177056 0.303100 -5.111927 94.589931 -0.634827 1.222422 45.763364 -0.138732 -0.112171 -0.815474 0.000001 0.000001 -0.000000 0.000000 0.000001 
0.490886 14.918259 12.488869 -82.936221 0.490883 -2.469233 5.266197 -0.300708 0.177729 5.943015 -0.314772 0.677889 5.946765 -0.209798 0.663837 16.130795 -0.122974 4.708175 25.806412 5.458673 -3.431244 -0.000003 0.000000 0.000000 -0.546730 -36.033862 -5.283590 5.944696 -14.487729 -38.175577 0.000022 -45.325258 0.000027 1.042971 -33.505486 16.094895 0.424266 4.383819 -20.883098 0.900181 3.122183 -32.159505 0.700865 2.780498 -28.289896 0.000000 -0.000000 0.000001 5.115639 15.291583 -2.658923 11.496251 19.037730 28.928563 13.552581 -31.589703 44.488287 -0.000000 0.000002 0.000000 -6.756462 38.318410 23.674069 -13.269774 22.784166 37.526207 0.000008 27.458289 -0.000012 -7.436248 21.080163 -4.887814 0.230378 -21.178142 6.035784 12.169973 -17.989405 -30.880580 16.024361 29.132089 -49.820667 0.000000 -0.000000 0.000001 0.179815 -3.232004 13.732881 0.241011 -1.480256 18.494535 0.129175 -1.090390 13.511769 -0.000000 -0.000000 -0.000000 -61.448043 1.922625 10.559186 90.993023 -7.623635 1.609063 49.472874 -3.113536 -3.128018 -0.433286 0.000000 -0.000001 0.000000 -0.000000 0.000000 -61.916874 0.554915 -5.073859 96.699052 -0.286323 1.402440 45.886300 -0.046471 0.327594 -1.282109 -0.000002 0.000001 0.000000 -0.000000 0.000000 
